<?xml version="1.0" encoding="UTF-8"?>
<svg id="_圖層_2" data-name="圖層 2" xmlns="http://www.w3.org/2000/svg" viewBox="0 0 624.59 316.26">
  <defs>
    <style>
      .cls-1 {
        fill: #004b67;
      }

      .cls-1, .cls-2 {
        stroke-width: 0px;
      }

      .cls-2 {
        fill: #70b232;
      }
    </style>
  </defs>
  <g id="_圖層_1-2" data-name="圖層 1">
    <g>
      <path class="cls-1" d="M83.04,228.57l-24.02-66.16c-6.63-15.86-18.59-17.89-26.21-17.89H0l50.35,138.7c2.33,5.32,5.41,9.01,8.66,11.6.36.29.72.56,1.08.82.18.13.36.26.54.38.52.35,1.04.69,1.57.99.1.06.2.11.3.17,5.59,3.16,11.09,3.62,13.66,3.76h33.16l-26.27-72.37Z"/>
      <polygon class="cls-2" points="113.53 144.51 83.04 228.57 109.31 300.94 109.32 300.94 139.82 216.85 113.56 144.51 113.53 144.51"/>
      <path class="cls-1" d="M172.58,162.4c-2.34-5.41-5.41-9.21-8.75-11.77-4.86-3.74-11.51-6.12-17.46-6.12h-32.81l26.26,72.34,24.09,66.36c6.32,16.43,19.59,17.73,25.8,17.73h33.16l-50.29-138.53Z"/>
      <path class="cls-1" d="M246.05,144.47c-6.73-.07-18.49,1.98-25.36,17.78l-24.08,66.16h52.52l30.55-83.93h-33.64Z"/>
      <path class="cls-2" d="M373.94,59.11L314.29,0l-18.57,51.31h0c-5.12,17.74,3.72,30.84,7.31,33.77l59.83,59.28.05.04,19.25-53.18c.34-1.07.59-2.14.73-2.58,1.73-5.56,1.38-18.12-8.95-29.54Z"/>
      <path class="cls-1" d="M436.58,170.55l9.53-26.26h-33.87c-9.1,0-18.81,1.29-24.96,17.36l-36.29,99.96h0s-.02.05-.05.12l-.52,1.43c-2.63,7.85-9.35,37.66,16.92,37.78h44.22c3.86-.11,9.9-1.54,13.31-10.64l10.11-27.78h-31.79l19.44-53.55h21.86c3.92-.08,9.68-1.72,13.31-10.64l10.11-27.78h-31.34Z"/>
      <path class="cls-1" d="M612.85,292.76c1.97,0,3.9.5,5.78,1.52,1.88,1.01,3.34,2.46,4.39,4.34,1.05,1.89,1.57,3.85,1.57,5.89s-.52,3.97-1.55,5.84c-1.03,1.87-2.48,3.32-4.35,4.35-1.86,1.03-3.81,1.55-5.85,1.55s-3.98-.52-5.85-1.55c-1.86-1.03-3.32-2.49-4.35-4.35-1.04-1.87-1.56-3.81-1.56-5.84s.53-4.01,1.58-5.89c1.05-1.88,2.52-3.33,4.4-4.34,1.88-1.01,3.8-1.52,5.78-1.52ZM612.85,294.71c-1.65,0-3.26.42-4.82,1.27-1.56.85-2.79,2.06-3.67,3.63-.88,1.57-1.32,3.21-1.32,4.91s.43,3.32,1.3,4.87c.87,1.55,2.08,2.76,3.64,3.63s3.18,1.3,4.87,1.3,3.32-.44,4.87-1.3c1.56-.87,2.77-2.08,3.63-3.63.86-1.55,1.29-3.17,1.29-4.87s-.44-3.34-1.32-4.91c-.88-1.57-2.1-2.78-3.67-3.63-1.57-.85-3.17-1.27-4.81-1.27ZM607.69,311.01v-12.64h4.34c1.48,0,2.56.12,3.22.35.66.23,1.19.64,1.59,1.22.39.58.59,1.2.59,1.85,0,.92-.33,1.73-.99,2.41-.66.69-1.53,1.07-2.62,1.15.45.19.8.41,1.07.67.51.5,1.13,1.33,1.87,2.51l1.54,2.48h-2.49l-1.12-1.99c-.88-1.57-1.59-2.55-2.13-2.94-.37-.29-.92-.44-1.63-.44h-1.2v5.37h-2.04ZM609.73,303.89h2.48c1.18,0,1.99-.18,2.42-.53.43-.35.65-.82.65-1.4,0-.37-.1-.71-.31-1.01-.21-.29-.5-.52-.86-.66-.37-.15-1.05-.22-2.05-.22h-2.32v3.82Z"/>
      <path class="cls-1" d="M610.39,145.94c-2.73-1.12-7.05-1.41-9.03-1.42h-82.67c-29.98,1.34-21.65,33.34-20.52,37.25l29.31,80.75h-30.11l14.58-40.07h-27.11c-6.03.17-12.19,2.37-16.14,13.32h0l-10.67,29.32c-2.75,8.93-7.63,35.84,17.78,35.84h87.46c22.88-.19,22.53-22.35,18.07-34.76l-30.22-83.24h22.12l-4.96,13.62h27.25c4.93-.06,11.6-2.33,15.8-12.75l7.17-19.7c3.29-10.35-2.56-15.9-8.1-18.17Z"/>
      <path class="cls-1" d="M329.04,144.41c-6.78,0-18.12,2.18-24.96,17.36l-50.48,139.06h40.82s1.34,0,2.01-.07c.16-.02.34-.04.52-.06.06,0,.1-.01.16-.02,1.14-.15,2.49-.44,3.85-1.02h0c3.22-1.25,6.99-3.84,8.95-9.24l53-146.01h-33.87Z"/>
    </g>
  </g>
</svg>